<svg xmlns="http://www.w3.org/2000/svg" width="55" height="82" viewBox="0 0 55 82">
  <path id="lightbulb-fill" d="M2,30.752c0-13.979,8.432-26.2,20.525-29.744s24.8,2.475,30.936,14.654,4.15,27.453-4.83,37.177a10.008,10.008,0,0,0-2.076,3.172l-3.492,9.066a2.3,2.3,0,0,1-2.1,1.548H18.041a2.3,2.3,0,0,1-2.108-1.548l-3.488-9.071a10.086,10.086,0,0,0-2.076-3.167A32.534,32.534,0,0,1,2,30.752Zm13.75,43.56a2.438,2.438,0,0,1,2.292-2.562H40.958a2.578,2.578,0,0,1,0,5.125l-1.027,2.291A4.561,4.561,0,0,1,35.834,82H23.166a4.561,4.561,0,0,1-4.1-2.834l-1.027-2.291A2.438,2.438,0,0,1,15.75,74.312Z" transform="translate(-2 0.001)" fill="#82debe"/>
</svg>
