<svg width="268" height="50" viewBox="0 0 268 50" fill="none" xmlns="http://www.w3.org/2000/svg">
<g clip-path="url(#clip0)">
<path d="M21.3565 49.9486C21.2849 49.9897 21.2029 50.0092 21.1205 50.0046C21.0381 50 20.9587 49.9716 20.8921 49.9227C20.8255 49.8739 20.7745 49.8067 20.7452 49.7294C20.716 49.652 20.7098 49.5679 20.7273 49.487L21.6124 45.5259L13.6147 45.4682C12.6961 45.4801 11.8046 45.1565 11.1067 44.558C10.6257 44.1358 10.2628 43.5954 10.0538 42.9899C9.84475 42.3845 9.79673 41.735 9.91449 41.1053L12.3181 29.5678C12.4767 28.7235 12.9247 27.9612 13.5848 27.4127C14.2448 26.8642 15.0754 26.5639 15.933 26.5638H38.3051C38.3095 26.5636 38.3136 26.562 38.3171 26.5593C38.3205 26.5567 38.323 26.553 38.3243 26.5488L38.785 24.0918C38.7853 24.089 38.785 24.0862 38.7842 24.0834C38.7834 24.0807 38.7821 24.0782 38.7803 24.076C38.7785 24.0738 38.7763 24.072 38.7738 24.0707C38.7713 24.0694 38.7686 24.0686 38.7658 24.0683H3.78935C3.24433 24.0751 2.70426 23.9641 2.20593 23.7429C1.70761 23.5216 1.26275 23.1954 0.901665 22.7864C0.527847 22.3518 0.260645 21.8356 0.121411 21.2792C-0.0178238 20.7227 -0.0252356 20.1413 0.0997635 19.5815L1.68437 12.5116C1.86344 11.6932 2.31724 10.961 2.97006 10.4372C3.62288 9.91349 4.43524 9.62985 5.27159 9.63363H44.8696C45.1429 9.63382 45.4077 9.53822 45.618 9.36341C45.8283 9.18859 45.971 8.94557 46.0213 8.67645L46.386 6.73004C46.4058 6.62578 46.4023 6.51842 46.3759 6.41565C46.3494 6.31288 46.3006 6.21724 46.233 6.13557C46.1653 6.0539 46.0805 5.98824 45.9845 5.94326C45.8885 5.89828 45.7839 5.87511 45.6779 5.87541H28.6162C28.399 5.87538 28.1887 5.95172 28.0219 6.0911C27.8551 6.23049 27.7424 6.42408 27.7034 6.63816L27.2769 8.98839L27.2577 9.00334H21.3266L21.3096 8.98198L22.3503 2.99958C22.5111 2.15666 22.9604 1.39631 23.6206 0.84953C24.2808 0.302749 25.1108 0.00377614 25.9674 0.00411568H49.1052C50.0226 -0.00885796 50.9134 0.313155 51.6111 0.910019C52.0926 1.33185 52.456 1.87216 52.6655 2.47765C52.8749 3.08313 52.9231 3.73285 52.8054 4.36272L51.2784 12.518C51.1195 13.3643 50.67 14.1283 50.0078 14.6774C49.3456 15.2264 48.5124 15.526 47.6528 15.5242H7.54079C7.39221 15.523 7.2477 15.5728 7.1313 15.6653C7.01489 15.7578 6.93361 15.8874 6.90097 16.0327L6.596 17.4001C6.57452 17.496 6.5749 17.5955 6.5971 17.6912C6.6193 17.7869 6.66275 17.8764 6.72423 17.953C6.78572 18.0296 6.86364 18.0913 6.95221 18.1335C7.04078 18.1758 7.13771 18.1975 7.23581 18.197H41.3592C42.2771 18.1852 43.168 18.5088 43.8651 19.1072C44.3469 19.5287 44.7104 20.0691 44.9195 20.6747C45.1286 21.2803 45.1761 21.9302 45.0573 22.5599L43.767 29.4525C43.6084 30.2968 43.1604 31.0591 42.5003 31.6076C41.8403 32.1561 41.0097 32.4563 40.1521 32.4565H18.8292C18.5243 32.4561 18.2285 32.5602 17.9907 32.7514C17.7529 32.9425 17.5875 33.2094 17.5219 33.5077L16.4555 38.3043C16.4214 38.4582 16.4221 38.6178 16.4578 38.7714C16.4934 38.925 16.5631 39.0687 16.6615 39.1917C16.76 39.3147 16.8848 39.4141 17.0267 39.4824C17.1686 39.5506 17.3239 39.5861 17.4814 39.5862H22.7811L23.743 35.5267C23.7575 35.4565 23.7895 35.391 23.836 35.3364C23.8824 35.2818 23.9419 35.2397 24.0088 35.2142C24.0757 35.1886 24.148 35.1804 24.219 35.1902C24.2899 35.2 24.3573 35.2276 24.4148 35.2703L28.7207 38.2786L33.3338 41.2399C33.4001 41.2793 33.4544 41.336 33.4911 41.4039C33.5278 41.4718 33.5454 41.5484 33.5422 41.6255C33.5389 41.7026 33.5148 41.7775 33.4725 41.842C33.4302 41.9065 33.3712 41.9583 33.3018 41.992L21.3565 49.9486Z" fill="url(#paint0_linear)"/>
<path d="M63.3181 15.7016H73.3418V19.8274H68.01V22.9596H73.152V27.0874H68.0079V34.0996H63.3159L63.3181 15.7016Z" fill="#BFBFBF"/>
<path d="M89.672 34.0997H85.5516V32.6041C84.8072 33.948 83.0947 34.5697 81.4823 34.5697C77.1146 34.5697 74.5574 31.1384 74.5574 27.1857C74.5574 22.6605 77.8098 19.8252 81.4823 19.8252C83.7409 19.8252 85.0056 20.9192 85.5516 21.7652V20.3017H89.672V34.0997ZM78.6778 27.2626C78.6778 28.5296 79.6205 30.7175 82.103 30.7175C83.566 30.7175 84.4489 30.0209 84.9821 29.177C85.3151 28.6444 85.5108 28.0372 85.5516 27.4101C85.5986 26.7852 85.4786 26.1591 85.2039 25.5961C84.7582 24.6517 83.8155 23.6732 82.0774 23.6732C79.7207 23.6732 78.6778 25.6623 78.6778 27.2284V27.2626Z" fill="#BFBFBF"/>
<path d="M98.5312 24.1796C98.5078 23.8804 98.4566 23.1348 97.2516 23.1348C96.3836 23.1348 96.085 23.6817 96.085 24.0556C96.085 24.6752 97.1023 25.0983 98.1943 25.423C100.527 26.064 103.01 26.7648 103.01 29.7475C103.01 32.7814 100.451 34.5718 97.4009 34.5718C95.3172 34.5718 92.1651 33.6253 91.7918 29.9974H95.8866C96.0615 31.2644 97.2772 31.2644 97.4499 31.2644C98.1452 31.2644 98.8895 30.867 98.8895 30.1961C98.8895 29.2518 97.8722 29.1279 95.2426 28.1066C93.4554 27.5361 91.9667 26.3674 91.9667 24.5022C91.9667 21.6434 94.4471 19.8274 97.2985 19.8274C99.1113 19.8274 102.238 20.5495 102.586 24.1796H98.5312Z" fill="#BFBFBF"/>
<path d="M105.874 23.4339H103.84V20.3017H105.874V15.7016H109.995V20.3017H111.98V23.436H109.995V34.1018H105.874V23.4339Z" fill="#BFBFBF"/>
<path d="M121.955 19.8274H118.329V15.7016H130.24V19.8274H126.645V34.0996H121.953L121.955 19.8274Z" fill="#BFBFBF"/>
<path d="M131.185 20.3017H135.056V21.8443C135.453 21.0986 136.174 19.8295 138.556 19.8295V23.983H138.413C136.304 23.983 135.312 24.7522 135.312 26.6922V34.1018H131.185V20.3017Z" fill="#BFBFBF"/>
<path d="M154.314 34.0997H150.194V32.6041C149.45 33.948 147.737 34.5697 146.125 34.5697C141.757 34.5697 139.2 31.1384 139.2 27.1857C139.2 22.6605 142.452 19.8252 146.125 19.8252C148.383 19.8252 149.648 20.9192 150.194 21.7652V20.3017H154.314V34.0997ZM143.32 27.2626C143.32 28.5296 144.263 30.7175 146.745 30.7175C148.208 30.7175 149.091 30.0209 149.622 29.177C149.956 28.6445 150.152 28.0374 150.194 27.4101C150.24 26.7853 150.12 26.1594 149.846 25.5961C149.401 24.6517 148.458 23.6732 146.72 23.6732C144.361 23.6732 143.32 25.6623 143.32 27.2284V27.2626Z" fill="#BFBFBF"/>
<path d="M171.237 28.848C170.819 30.6126 169.769 32.1621 168.286 33.2029C166.803 34.2438 164.991 34.7036 163.192 34.4953C161.394 34.287 159.734 33.425 158.527 32.0727C157.321 30.7204 156.651 28.9717 156.645 27.158C156.645 23.0985 159.795 19.8231 163.916 19.8231C167.565 19.8231 170.527 22.2353 171.212 25.6175H167.042C166.597 24.671 165.778 23.6775 164.057 23.6775C163.612 23.6488 163.167 23.7212 162.755 23.8891C162.342 24.0571 161.973 24.3164 161.674 24.6475C161.077 25.355 160.759 26.2572 160.781 27.1836C160.781 29.1962 162.097 30.6876 164.057 30.6876C165.763 30.6876 166.588 29.6941 167.042 28.848H171.237Z" fill="#BFBFBF"/>
<path d="M173.27 15.7016H177.39V25.297L181.261 20.3017H186.149L180.965 26.3695L186.002 34.1018H181.336L177.39 27.4635V34.1018H173.27V15.7016Z" fill="#BFBFBF"/>
<path d="M195.975 19.8274H192.349V15.7016H204.262V19.8274H200.667V34.0996H195.975V19.8274Z" fill="#BFBFBF"/>
<path d="M218.707 34.0997H214.587V32.6041C213.843 33.948 212.13 34.5697 210.518 34.5697C206.15 34.5697 203.593 31.1384 203.593 27.1857C203.593 22.6605 206.845 19.8252 210.518 19.8252C212.776 19.8252 214.041 20.9192 214.587 21.7652V20.3017H218.707V34.0997ZM207.713 27.2626C207.713 28.5296 208.656 30.7175 211.138 30.7175C212.601 30.7175 213.484 30.0209 214.017 29.177C214.35 28.6439 214.545 28.037 214.587 27.4101C214.633 26.7853 214.513 26.1594 214.239 25.5961C213.794 24.6517 212.851 23.6732 211.113 23.6732C208.756 23.6732 207.713 25.6623 207.713 27.2284V27.2626Z" fill="#BFBFBF"/>
<path d="M221.708 15.7016H225.828V34.0996H221.708V15.7016Z" fill="#BFBFBF"/>
<path d="M232.18 28.6343C232.355 30.1 233.743 31.07 235.357 31.07C236.673 31.07 237.366 30.4974 237.863 29.7881H242.082C241.5 31.2072 240.527 32.4314 239.277 33.3177C238.133 34.1341 236.762 34.5691 235.357 34.5612C233.423 34.5583 231.569 33.7873 230.201 32.4172C228.834 31.0471 228.064 29.1896 228.061 27.252C228.061 23.4061 231.088 19.8423 235.283 19.8423C236.254 19.8242 237.218 20.0075 238.114 20.3807C239.011 20.7539 239.821 21.309 240.493 22.0109C242.231 23.8762 242.751 26.0897 242.429 28.6343H232.18ZM238.384 25.5C238.286 24.859 237.441 23.3142 235.306 23.3142C233.171 23.3142 232.32 24.8547 232.231 25.5H238.384Z" fill="#BFBFBF"/>
<path d="M244.835 20.3017H248.674V21.7695C249.145 21.0986 250.013 19.8295 252.47 19.8295C257.111 19.8295 257.589 23.6091 257.589 25.4743V34.1018H253.473V26.5661C253.473 25.0492 253.148 23.7074 251.312 23.7074C249.278 23.7074 248.966 25.1731 248.966 26.5896V34.0997H244.835V20.3017Z" fill="#BFBFBF"/>
<path d="M261.336 23.4339H259.301V20.3017H261.336V15.7016H265.456V20.3017H267.442V23.436H265.456V34.1018H261.336V23.4339Z" fill="#BFBFBF"/>
</g>
<defs>
<linearGradient id="paint0_linear" x1="28.8295" y1="-16.2958" x2="17.1452" y2="121.405" gradientUnits="userSpaceOnUse">
<stop stop-color="#2BDEBD"/>
<stop offset="1" stop-color="#3EF794"/>
</linearGradient>
<clipPath id="clip0">
<rect width="267.442" height="50" fill="white"/>
</clipPath>
</defs>
</svg>
