<svg xmlns="http://www.w3.org/2000/svg" width="82" height="80.333" viewBox="0 0 82 80.333">
  <path id="people" d="M76.875,82.334S82,82.334,82,75.639,76.875,48.861,56.375,48.861,30.75,68.945,30.75,75.639s5.125,6.694,5.125,6.694ZM35.988,75.639a1.06,1.06,0,0,1-.113-.027A24.242,24.242,0,0,1,39.77,64.1c2.829-4.331,7.8-8.542,16.6-8.542S70.146,59.773,72.98,64.1a24.322,24.322,0,0,1,3.895,11.514l-.041.013-.072.013ZM56.375,35.472c5.661,0,10.25-5.994,10.25-13.389S62.036,8.694,56.375,8.694s-10.25,5.994-10.25,13.389S50.714,35.472,56.375,35.472ZM71.75,22.083c0,11.092-6.884,20.083-15.375,20.083S41,33.175,41,22.083,47.884,2,56.375,2,71.75,10.992,71.75,22.083Zm-36.2,28.652a24.065,24.065,0,0,0-6.3-1.654,28.916,28.916,0,0,0-3.618-.221C5.125,48.861,0,68.945,0,75.639q0,6.7,5.125,6.694H26.732a18.931,18.931,0,0,1-1.107-6.694A36.736,36.736,0,0,1,31.211,56.2a32.219,32.219,0,0,1,4.336-5.463Zm-10.332,4.82A45.129,45.129,0,0,0,20.5,75.639H5.125A24.25,24.25,0,0,1,9.02,64.1c2.793-4.258,7.646-8.408,16.2-8.535ZM7.688,25.431c0-11.092,6.884-20.083,15.375-20.083s15.375,8.992,15.375,20.083S31.554,45.514,23.063,45.514,7.688,36.522,7.688,25.431ZM23.063,12.042c-5.661,0-10.25,5.994-10.25,13.389S17.4,38.82,23.063,38.82s10.25-5.994,10.25-13.389S28.723,12.042,23.063,12.042Z" transform="translate(0 -2)" fill="#82debe"/>
</svg>
