<svg xmlns="http://www.w3.org/2000/svg" width="54" height="44" viewBox="0 0 54 44">
  <path id="search_1_" data-name="search (1)" d="M39.63,28.446c6.778-7.537,5.289-18.057-3.416-24.139s-21.69-5.674-29.8.936-8.6,17.192-1.127,24.281,20.379,8.3,29.623,2.767h0a3.5,3.5,0,0,0,.331.316L48.236,43.2a3.938,3.938,0,0,0,4.774,0,2.408,2.408,0,0,0,0-3.89L40.018,28.718a3.3,3.3,0,0,0-.388-.275ZM40.5,17.874C40.5,26.228,32.19,33,21.939,33S3.377,26.228,3.377,17.874,11.687,2.747,21.939,2.747,40.5,9.519,40.5,17.874Z" transform="translate(0.001 -0.002)" fill="#82debe"/>
</svg>
