<svg xmlns="http://www.w3.org/2000/svg" width="55" height="55" viewBox="0 0 55 55">
  <path id="telephone-fill" d="M6.481,1.755a6,6,0,0,1,8.972.56l6.17,7.927a6,6,0,0,1,1.083,5.136l-1.88,7.528a2.331,2.331,0,0,0,.612,2.21l8.446,8.446a2.33,2.33,0,0,0,2.214.612l7.524-1.88a6,6,0,0,1,5.135,1.083l7.927,6.167a6,6,0,0,1,.56,8.976l-3.554,3.555A9.545,9.545,0,0,1,39.8,54.488,64.052,64.052,0,0,1,15.7,39.294,64.058,64.058,0,0,1,.51,15.2a9.556,9.556,0,0,1,2.416-9.89Z" transform="translate(0 -0.001)" fill="#82debe" fill-rule="evenodd"/>
</svg>
